# xmcd
#
# Track frame offsets:
#	182
#	16167
#	28945
#	40325
#	56145
#	70920
#	83800
#	97295
#	114737
#	130447
#
# Disc length: 1939 seconds
#
# Revision: 3
# Processed by: cddbd v1.5.1PL2 Copyright (c) Steve Scherf et al.
# Submitted via: dBpowerAMP V4.0
#
DISCID=9007910a
DTITLE=Various Artist - Greatest Country Hits of the 80's - Volume III
DYEAR=1995
DGENRE=Country
TTITLE0=Randy Travis - Forever And Ever, Amen
TTITLE1=Dwight Yoakam and Buck Owen - Streets Of Bakersfield
TTITLE2=Highway 101 - Cry, Cry, Cry
TTITLE3=Kenny Rogers - The Vows Go Unbroken (Always True To You)
TTITLE4=Eddie Rabbit - Drivin' My Life Away
TTITLE5=Hank Williams Jr with Hank Williams Sr - There's A Tear In My Beer
TTITLE6=Conway Twitty - I Don't Know A Think About Love (The Moon Song)
TTITLE7=Dolly Parton, Linda Ronstadt, and Emmylou Harris - To Know Him Is To Love Him
TTITLE8=Holly Dunn - Daddy's Hands
TTITLE9=Nitty Gritty Dirt Band - Fishin' In The Dark
EXTD=
EXTT0=
EXTT1=
EXTT2=
EXTT3=
EXTT4=
EXTT5=
EXTT6=
EXTT7=
EXTT8=
EXTT9=
PLAYORDER=
